<svg id="Layer_1" data-name="Layer 1" xmlns="http://www.w3.org/2000/svg" xmlns:xlink="http://www.w3.org/1999/xlink" viewBox="0 0 149.91 133.46"><defs><style>.cls-1{fill:none;}.cls-2{fill:#8c6239;opacity:0.3;}.cls-3{fill:#c3853c;}.cls-4{fill:#9e6e2e;}.cls-5{fill:#ecb165;}.cls-6{fill:#bc7433;}.cls-7{clip-path:url(#clip-path);}.cls-8{fill:#dd944b;}.cls-9{font-size:25px;fill:#603813;font-family:SegoeUI-Semibold, Segoe UI;font-weight:700;}.cls-10{letter-spacing:0.04em;}</style><clipPath id="clip-path"><path id="_Clipping_Path_" data-name="&lt;Clipping Path&gt;" class="cls-1" d="M126,18.9a63.47,63.47,0,0,0-13.77-3.49s-18.59,6.48-21,6.19-7.82-2.25-12.65,0-8.91,2.85-14.83,3.08-8,.87-16.7,2.75a180.51,180.51,0,0,1-21.5,2.89c-2.14.17,1.26.86-4.89,1.58s-4.91,1.34-7.52,1.55-6.69,2.91-6.69,2.91,1.74,13,5,15.36l3.29,2.37s-1.86.62-1,4.86a26.27,26.27,0,0,1,.54,6.88s5,2.24,12.92.41,16.86-4.19,21.9-3.87a22.87,22.87,0,0,0,9.87-2s17.21.32,23-2.29,6-2.62,11.22-3,10.91-.86,15.51-3.13a21.75,21.75,0,0,1,8.41-2.33A61.73,61.73,0,0,0,128,37.91c4.23-6.33,11.17-6.7,12.35-10.8S134,21.81,126,18.9Z"/></clipPath></defs><title>SVGs</title><ellipse class="cls-2" cx="63.92" cy="126.94" rx="44.6" ry="5.7" transform="translate(-8.94 4.91) rotate(-4.11)"/><g id="_Group_" data-name="&lt;Group&gt;"><g id="_Group_2" data-name="&lt;Group&gt;"><path id="_Rectangle_" data-name="&lt;Rectangle&gt;" class="cls-3" d="M69.53,8.79h.63a4.38,4.38,0,0,1,4.38,4.38v119.5a0,0,0,0,1,0,0H65.15a0,0,0,0,1,0,0V13.17a4.38,4.38,0,0,1,4.38-4.38Z" transform="translate(-4.89 5.19) rotate(-4.11)"/><path id="_Path_" data-name="&lt;Path&gt;" class="cls-4" d="M79,132.17,70.32,11.87C70.19,10.07,68,8.77,65.4,9l8.88,123.55Z"/></g><g id="_Group_3" data-name="&lt;Group&gt;"><path id="_Path_2" data-name="&lt;Path&gt;" class="cls-5" d="M126,18.9a63.47,63.47,0,0,0-13.77-3.49s-18.59,6.48-21,6.19-7.82-2.25-12.65,0-8.91,2.85-14.83,3.08-8,.87-16.7,2.75a180.51,180.51,0,0,1-21.5,2.89c-2.14.17,1.26.86-4.89,1.58s-4.91,1.34-7.52,1.55-6.69,2.91-6.69,2.91,1.74,13,5,15.36l3.29,2.37s-1.86.62-1,4.86a26.27,26.27,0,0,1,.54,6.88s5,2.24,12.92.41,16.86-4.19,21.9-3.87a22.87,22.87,0,0,0,9.87-2s17.21.32,23-2.29,6-2.62,11.22-3,10.91-.86,15.51-3.13a21.75,21.75,0,0,1,8.41-2.33A61.73,61.73,0,0,0,128,37.91c4.23-6.33,11.17-6.7,12.35-10.8S134,21.81,126,18.9Z"/><polygon id="_Path_3" data-name="&lt;Path&gt;" class="cls-6" points="14.8 54.11 33.42 49.69 12.09 52.17 14.8 54.11"/><g id="_Clip_Group_" data-name="&lt;Clip Group&gt;"><g class="cls-7"><g id="_Group_4" data-name="&lt;Group&gt;"><g id="_Group_5" data-name="&lt;Group&gt;"><path id="_Path_4" data-name="&lt;Path&gt;" class="cls-8" d="M7.59,61.09l-.95-3c-.1-.31-2.2-7.57,13.73-12.78,6.44-2.1,13.24-3.81,18.71-5.18C43.87,38.9,48.8,37.66,49.7,37a2.46,2.46,0,0,0-.35-.12c-2.3-.65-11.83,1.09-21,2.77S9.41,43.07,4.8,42.93l0-.84c4.52.14,14.08-1.61,23.33-3.3C37.89,37,47.08,35.34,49.57,36c.29.08,1.07.3,1.06.91,0,1-2.16,1.66-11.35,4C33.83,42.29,27,44,20.63,46.09,9.43,49.75,7.57,54.38,7.37,56.56c1.74-1.91,7.45-5.65,26.11-10.79C49.15,41.46,56.65,36,56,33.75c-.3-1.12-3.51-2.32-13.66.28A118.7,118.7,0,0,1,0,36.51l.13-.83a117.88,117.88,0,0,0,42-2.47c8.56-2.2,14-2.08,14.69.31.8,3-7,8.62-23.15,13.06C8.24,53.6,7.47,57.91,7.46,58Z"/></g><g id="_Group_6" data-name="&lt;Group&gt;"><path id="_Path_5" data-name="&lt;Path&gt;" class="cls-8" d="M66.21,69.21c-.67.05-1-.08-1.19-.41-.42-.83.93-2,4.9-5.2,2.56-2.05,6.84-5.49,6.46-6.4,0,0-.23-.44-2.25-.22-10.95,1.19-39.88,5.61-60.76,9.53-6.78,1.27-6.85,1-7,.49-.18-.7.56-1.08,11.19-4.68,5.84-2,12.47-4.23,15.16-5.61a47.47,47.47,0,0,0,6.93-4.52,41.9,41.9,0,0,1,12.24-6.85.42.42,0,1,1,.28.79,41.2,41.2,0,0,0-12,6.73,48.73,48.73,0,0,1-7,4.6c-2.75,1.41-9.4,3.67-15.28,5.66-3.61,1.22-7.58,2.57-9.53,3.37.9-.11,2.4-.34,4.89-.81,20.9-3.92,49.86-8.35,60.83-9.54,1.86-.2,2.83,0,3.12.73.58,1.4-2.15,3.72-6.71,7.38-1.81,1.45-4.24,3.4-4.61,4.12A7.05,7.05,0,0,0,67.92,68c7.2-2,26.32-7.24,24.83-13-.85-3.27-14.66-1.51-26.85,0-7.53,1-15.31,2-21.29,2.06-2.52,0-3.68-.29-3.89-1.12-.42-1.69,4.34-4.24,12.23-8.23,3.57-1.81,8-4,8.61-4.89-.31-.07-1.29-.14-4.31.35C37.59,46.43,13.29,60.55,13,60.7a.42.42,0,0,1-.42-.73c.24-.14,24.68-14.34,44.51-17.59,4.17-.68,5.11-.45,5.32.19.32,1-1.65,2.16-9.11,5.93-4.52,2.29-12.09,6.12-11.8,7.28,0,0,.17.53,3.06.48,5.93-.1,13.69-1.09,21.2-2,14.35-1.83,26.73-3.41,27.77.58,1.5,5.79-12,10.34-25.42,14A11.1,11.1,0,0,1,66.21,69.21Z"/></g><g id="_Group_7" data-name="&lt;Group&gt;"><path id="_Path_6" data-name="&lt;Path&gt;" class="cls-8" d="M27.71,33c-15.95,1.26-19.85-3.05-20-3.26a.42.42,0,0,1,.64-.55c.05.06,5,5.31,26,2.2C56.7,28,85,16.78,85.08,14.08c-.9-.63-9.94,2.69-17.91,5.63-10.11,3.73-21.56,8-28.88,9.18-14.62,2.45-24.66-.34-27.79-4a.42.42,0,1,1,.64-.55c2.49,2.88,11.76,6.24,27,3.68,7.24-1.21,18.66-5.42,28.73-9.14,11.44-4.22,17.47-6.38,18.73-5.46a.75.75,0,0,1,.31.65c-.14,3.71-30.44,15-51.49,18.07C32,32.54,29.75,32.8,27.71,33Z"/></g><g id="_Group_8" data-name="&lt;Group&gt;"><path id="_Compound_Path_" data-name="&lt;Compound Path&gt;" class="cls-8" d="M70.57,40.19c-.43,0-.82.05-1.17.06-12.85.24-13-.42-13.08-1s.54-.85,1.24-1.11c2-.72,3.53-2.25,3.54-3.47,0-.72-.53-1.29-1.58-1.69s-1.88-.76-1.87-1.38c0-.85,1.25-1.3,6.49-3.21,2-.71,4.39-1.6,7.4-2.75A51.33,51.33,0,0,0,92.7,9.89a.42.42,0,1,1,.68.49,52.21,52.21,0,0,1-21.56,16c-3,1.15-5.45,2-7.41,2.75-3.16,1.15-5.48,2-5.89,2.42a5.88,5.88,0,0,0,1.29.6c1.77.67,2.13,1.72,2.13,2.48,0,1.61-1.73,3.4-4.09,4.26l-.42.17c.9.23,3.7.46,12,.31s34.89-7,35.11-10.51c0-.25-.24-1.09-4.22-1.67l-.48-.07a1.33,1.33,0,0,1,.45.23.68.68,0,0,1,.24.66c-.11.54-.86,1.24-5.53,2.72-15,4.76-25.63,4.48-28,1.79a1.69,1.69,0,0,1-.31-1.91c1.55-3.42,15.82-6.86,33.77-4.25,3.45.5,5,1.31,4.94,2.55C105.06,33.3,79.33,39.5,70.57,40.19ZM82.32,26.56c-8.49.67-14.16,2.72-14.94,4.44a.85.85,0,0,0,.17,1c1.84,2.07,11.73,2.85,27.13-2,3.7-1.17,4.65-1.78,4.89-2-2.09-1.09-23.32,1.11-26,2.06a.42.42,0,0,1-.28-.79c1.06-.38,17.18-2.6,24-2.36A80.2,80.2,0,0,0,82.32,26.56Z"/></g><g id="_Group_9" data-name="&lt;Group&gt;"><path id="_Path_7" data-name="&lt;Path&gt;" class="cls-8" d="M92.38,63.51a.42.42,0,0,1-.25-.78c.07,0,6.73-4.1,6.5-7.75-.09-1.42-1.26-2.63-3.48-3.61-5.46-2.41-18.54-.92-27.21.06-7.77.88-9.61,1-9.9.15-.18-.54.44-1,1.13-1.41,3.74-2.2,13.53-5,23-7.75C90.62,40,98.59,37.7,102,36c4.81-2.45,9.69-6.59,9.2-9-.25-1.22-2-2-4.94-2.19s-5.77-.25-8.35-.29c-6.51-.1-9.94-.23-10.63-1.8-.29-.66,0-1.45.83-2.41C92,15.91,126,.57,133.11,0c2.81-.22,5.13,1.7,5.77,4.79.92,4.44-1.81,10.17-10,13-11.18,3.82-29.71,7.17-32.41,3.95a1.68,1.68,0,0,1-.05-2c3.27-5.93,30.06-12.56,30.33-12.62A24.32,24.32,0,0,1,135,6.42l.36.05v.36c0,.21-.11,5.23-14,8.78-13.61,3.48-19.28,4.28-19.34,4.29a.42.42,0,0,1-.12-.83c.06,0,5.69-.81,19.24-4.27,10.94-2.79,12.94-6.43,13.3-7.59a25.33,25.33,0,0,0-7.54.68c-7.07,1.66-27.27,7.65-29.78,12.21-.34.62-.19.91,0,1.09,2,2.38,18.78.14,31.49-4.2,7.69-2.63,10.28-7.92,9.43-12-.55-2.65-2.51-4.3-4.88-4.12-7,.55-40.62,15.67-44.42,20-.41.47-.87,1.11-.69,1.52.51,1.15,5.06,1.22,9.87,1.3,2.59,0,5.53.09,8.4.29,3.45.25,5.37,1.21,5.7,2.86.67,3.32-5.4,7.75-9.65,9.91-3.49,1.78-11.5,4.09-20,6.53C73,46,63.26,48.76,59.61,50.91a5,5,0,0,0-.58.39c1.11.19,5-.26,8.83-.69,9.27-1.06,22-2.5,27.64,0,2.53,1.12,3.87,2.57,4,4.33.26,4.16-6.61,8.34-6.9,8.52A.42.42,0,0,1,92.38,63.51Z"/></g><g id="_Group_10" data-name="&lt;Group&gt;"><path id="_Path_8" data-name="&lt;Path&gt;" class="cls-8" d="M103.44,59.09h-.06a.42.42,0,0,1-.39-.45c0-.06.36-5.59-2.89-9-1.77-1.84-4.31-2.73-7.53-2.63-10.44.32-10.55-.54-10.62-1.11s-.18-1.43,10.19-3.81c8.18-1.88,15.46-.58,20,3.55A11.81,11.81,0,0,1,116,56.28a.42.42,0,1,1-.83-.12,11,11,0,0,0-3.59-9.86c-4.31-3.94-11.31-5.17-19.22-3.35-7.37,1.69-9.07,2.54-9.46,2.87.43.2,2.24.62,9.68.39,3.48-.11,6.22.86,8.17,2.89,3.5,3.65,3.13,9.36,3.12,9.6A.42.42,0,0,1,103.44,59.09Z"/></g><g id="_Group_11" data-name="&lt;Group&gt;"><path id="_Path_9" data-name="&lt;Path&gt;" class="cls-8" d="M109.94,58.58h0a.42.42,0,0,1-.43-.41c0-.11-.4-11.27-7.88-13.36a.42.42,0,0,1,.23-.81c8.08,2.26,8.48,13.66,8.49,14.14A.42.42,0,0,1,109.94,58.58Z"/></g><g id="_Group_12" data-name="&lt;Group&gt;"><path id="_Path_10" data-name="&lt;Path&gt;" class="cls-8" d="M136.84,58.44a4.94,4.94,0,0,1-2.26-.35C126,54.61,116.85,46.77,112.47,43c-1.13-1-1.95-1.68-2.3-1.91a.64.64,0,0,1-.12-.94c1.48-2.25,26.47-14.7,30.55-12a1,1,0,0,1,.54,1c-.2,1.58-5.12,3.33-13.2,6-4.23,1.41-10,3.33-10.47,4.18,1.3,2.22,5.46,7.69,9.7,7.16,2.77-.33,5.16-3.34,5.36-5.71a1.74,1.74,0,0,0-1.14-2c-2.67-.81-6.66,1.73-7.21,3-.1.22,0,.25,0,.28a.42.42,0,1,1-.43.72,1,1,0,0,1-.35-1.34c.72-1.63,5.17-4.35,8.22-3.43a2.53,2.53,0,0,1,1.74,2.91c-.24,2.74-2.9,6.09-6.1,6.47l-.23,0c-5.58.44-10.29-7.57-10.34-7.66a.72.72,0,0,1,0-.62c.41-1.09,3.67-2.27,11-4.72,5-1.66,12.48-4.16,12.63-5.33,0,0-.08-.12-.17-.18-.48-.31-2-.6-7.09,1-9.12,2.93-21.06,9.21-22.24,10.68.44.32,1.17,1,2.2,1.84,4.35,3.74,13.4,11.52,21.87,14.95,2.66,1.08,5.23-.86,6.92-2.68,5.46-5.89,9.31-18.79,6-25.45-1.61-3.26-4.73-4.69-9.13-4.27a60.61,60.61,0,0,0-33.56,14.3.42.42,0,0,1-.58-.61,61.53,61.53,0,0,1,34.07-14.53c4.73-.44,8.2,1.18,10,4.74,3.53,7.14-.48,20.28-6.15,26.4C140.58,57.19,138.66,58.29,136.84,58.44Z"/></g></g></g></g></g></g><text class="cls-9" transform="matrix(0.99, -0.15, 0.15, 0.99, 29.94, 56.75)">Galle<tspan class="cls-10" x="56.82" y="0">r</tspan><tspan x="67.08" y="0">y</tspan></text></svg>